# xmcd
#
# Track frame offsets: 
#        150
#        18912
#        35675
#        52842
#        76125
#        95085
#        109905
#        126077
#        144157
#        160352
#        178560
#        199422
#        216250
#        230155
#        243552
#        258675
#        276340
#        295677
#        312645
#
# Disc length: 4372 seconds
#
# Revision: 2
# Processed by: cddbd v1.5.2PL0 Copyright (c) Steve Scherf et al.
# Submitted via: ExactAudioCopy v0.95b2
#
DISCID=20111213
DTITLE=Various Artist - Radioactivity 9908
DYEAR=1999
DGENRE=Top 40
TTITLE0=Ronan Keating - When You Say Nothing At All
TTITLE1=98 Degrees - The Hardest Thing
TTITLE2=Lenny Kravitz - American Woman
TTITLE3=Paula Cole - I Don't Want To Wait
TTITLE4=Bijou Phillips - When I Hated Him (Don't Tell Me)
TTITLE5=Smash Mouth - All Star
TTITLE6=New Radicals - Someday We'll Know
TTITLE7=Sugar Ray - Someday
TTITLE8=Killing Heidi - Weir
TTITLE9=Whitney Houston - Heartbreak Hotel
TTITLE10=TLC - Unpretty
TTITLE11=A+ feat Joe - Bet She Don't Love You
TTITLE12=Geri Haliwell - Mi Chico Latino
TTITLE13=Five - If Ya Gettin' Down
TTITLE14=Melanie G - Word Up
TTITLE15=Sunshine State - Roots (Feel Too High)
TTITLE16=Delerium - Silence
TTITLE17=Ann Lee - 2 Times
TTITLE18=666 - Paradoxx
EXTD=
EXTT0=
EXTT1=
EXTT2=
EXTT3=
EXTT4=
EXTT5=
EXTT6=
EXTT7=
EXTT8=
EXTT9=
EXTT10=
EXTT11=
EXTT12=
EXTT13=
EXTT14=
EXTT15=
EXTT16=
EXTT17=
EXTT18=
PLAYORDER=
